<svg xmlns:xlink="http://www.w3.org/1999/xlink" xmlns="http://www.w3.org/2000/svg"
        viewBox="0 0 66 10">
    <defs>
        <path id="A" d="M0 0h66v10H0z" />
    </defs>
    <clipPath id="B">
        <use xlink:href="#A" />
    </clipPath>
    <path d="M.167 2.548l.002-1.519S.211.332.9.691l1.398.719s.198.116 0 .222L.344 2.653s-.177.074-.177-.106zM.16 7.82L.162 9.34s.043.696.731.336l1.398-.72s.198-.117 0-.222L.337 7.715S.159 7.641.16 7.82zm2.647-4.018l1.722-.894c.343-.178.006-.341.006-.341l-1.723-.901s-.307-.167-.293.185l-.002 1.745s-.049.373.291.207zM.451 5.052l1.722-.894c.343-.178.006-.341.006-.341L.456 2.915S.149 2.748.162 3.1L.16 4.844s-.049.373.291.207zm4.708-.048l1.722-.894c.343-.178.006-.341.006-.341l-1.723-.901s-.307-.167-.293.185l-.002 1.745s-.049.373.291.207zm-2.35 1.259l1.722-.894c.343-.178.006-.342.006-.342l-1.723-.901s-.307-.167-.293.185l-.002 1.744s-.049.373.291.207zM.449 7.458l1.722-.894c.343-.178.006-.342.006-.342L.454 5.322s-.307-.167-.293.185L.158 7.251s-.049.373.291.207zm2.358 1.243l1.722-.894c.343-.178.006-.341.006-.341l-1.723-.901s-.307-.167-.293.184l-.003 1.745s-.049.373.291.207zm2.352-1.197L6.88 6.61c.343-.178.006-.341.006-.341l-1.723-.901s-.307-.167-.293.185l-.002 1.745s-.049.373.291.207zm2.066-3.238l-.002 1.857s-.026.274.222.147l1.437-.741c.666-.344.002-.678.002-.678l-1.441-.747c-.241-.125-.217.162-.217.162z"
            clip-path="url(#B)" />
    <g clip-path="url(#B)">
        <path d="M11.299 7.726c.068.327.217.599.448.814s.515.323.856.323c.273 0 .496-.052.671-.155a1.15 1.15 0 0 0 .415-.42c.102-.177.175-.383.217-.62a4.33 4.33 0 0 0 .064-.756V.62h1.266v6.343a5.31 5.31 0 0 1-.103 1.008 2.88 2.88 0 0 1-.383.982 2.25 2.25 0 0 1-.786.75c-.337.199-.769.297-1.298.297-.69 0-1.252-.181-1.687-.543a2.53 2.53 0 0 1-.856-1.395l1.176-.336zm9.475 2.042l-.038-.524-.013-.485h-.026c-.153.328-.411.605-.773.833a2.22 2.22 0 0 1-1.208.343c-.392 0-.731-.065-1.016-.194a1.87 1.87 0 0 1-.703-.536c-.183-.228-.32-.493-.409-.794s-.134-.625-.134-.969V3.643h1.202v3.385a4.36 4.36 0 0 0 .057.717 1.72 1.72 0 0 0 .211.6c.102.172.243.31.422.413s.409.155.69.155a1.44 1.44 0 0 0 1.176-.549c.298-.366.447-.855.447-1.467V3.643h1.202v4.806l.013.633.038.685h-1.138zm5.809-4.574a1.58 1.58 0 0 0-.575-.549c-.247-.142-.524-.213-.831-.213a1.9 1.9 0 0 0-.409.045 1.21 1.21 0 0 0-.364.142c-.106.065-.192.147-.256.246s-.096.222-.096.368a.61.61 0 0 0 .345.575c.23.125.575.239 1.036.342a6.31 6.31 0 0 1 .805.246c.247.095.462.213.646.355s.326.312.428.51.153.431.153.698c0 .361-.068.668-.204.917s-.318.455-.543.614a2.2 2.2 0 0 1-.774.342c-.29.068-.588.104-.895.104a3.51 3.51 0 0 1-1.349-.271 2.64 2.64 0 0 1-1.093-.827l.857-.736a1.96 1.96 0 0 0 .671.607c.286.163.599.246.94.246a2.07 2.07 0 0 0 .441-.046c.141-.03.268-.079.383-.149a.79.79 0 0 0 .275-.271.81.81 0 0 0 .102-.426.67.67 0 0 0-.403-.633c-.269-.138-.662-.267-1.182-.388l-.62-.187a2.06 2.06 0 0 1-.569-.304 1.52 1.52 0 0 1-.415-.485 1.47 1.47 0 0 1-.159-.717c0-.327.066-.609.198-.846a1.74 1.74 0 0 1 .518-.581 2.27 2.27 0 0 1 .729-.336 3.25 3.25 0 0 1 .843-.11 3.17 3.17 0 0 1 1.259.259 2.09 2.09 0 0 1 .939.749l-.831.711zm5.205-.556h-1.61v3.181c0 .369.068.634.204.792s.354.239.652.239c.111 0 .23-.012.358-.036s.242-.059.345-.106l.038.995a2.99 2.99 0 0 1-.479.123 3.21 3.21 0 0 1-.543.045c-.571 0-1.008-.159-1.31-.478s-.454-.796-.454-1.434v-3.32h-1.163v-.995h1.163V1.886h1.189v1.757h1.61v.995zm3.375 3.268h.026L37.31.62h1.393l2.109 7.286h.026L42.832.62h1.342l-2.659 9.147h-1.316L38 2.416h-.026l-2.198 7.352H34.46L31.801.62h1.368l1.994 7.286zm12.8-2.105c0-.456-.136-.795-.409-1.014s-.635-.329-1.086-.329a2.37 2.37 0 0 0-.965.2 2.44 2.44 0 0 0-.76.51l-.639-.775c.298-.284.662-.508 1.093-.672a3.87 3.87 0 0 1 1.387-.246c.435 0 .812.063 1.131.187a2.14 2.14 0 0 1 .786.51 2.09 2.09 0 0 1 .46.762 2.84 2.84 0 0 1 .154.943v2.674l.019.652a3.34 3.34 0 0 0 .07.562h-1.087a3.84 3.84 0 0 1-.102-.878h-.039c-.222.327-.501.581-.837.762s-.735.271-1.195.271a3.11 3.11 0 0 1-.748-.097 2.16 2.16 0 0 1-.71-.317c-.213-.146-.39-.34-.531-.581s-.211-.538-.211-.892c0-.465.123-.833.371-1.104s.571-.478.972-.62.852-.234 1.355-.278l1.521-.065v-.168zm-.294 1.047l-.927.039a4.21 4.21 0 0 0-.869.155 1.65 1.65 0 0 0-.646.349c-.171.155-.256.361-.256.62 0 .181.036.332.109.452a.91.91 0 0 0 .288.297 1.16 1.16 0 0 0 .396.162 2.2 2.2 0 0 0 .447.045c.563 0 .995-.17 1.297-.511s.454-.769.454-1.285v-.323h-.294zm5.969-2.21h-1.61v3.181c0 .369.068.634.204.792s.354.239.652.239c.11 0 .23-.012.358-.036a1.46 1.46 0 0 0 .345-.106l.038.995a2.99 2.99 0 0 1-.479.123 3.21 3.21 0 0 1-.543.045c-.571 0-1.008-.159-1.31-.478s-.454-.796-.454-1.434v-3.32h-1.163v-.995h1.163V1.886h1.189v1.757h1.61v.995zm5.164.556a1.47 1.47 0 0 0-.575-.497 1.75 1.75 0 0 0-.818-.2c-.315 0-.594.06-.837.181a1.92 1.92 0 0 0-.62.485c-.17.202-.3.437-.39.704a2.61 2.61 0 0 0-.134.84 2.63 2.63 0 0 0 .134.84 2.14 2.14 0 0 0 .39.705c.17.202.379.364.626.484s.528.181.844.181a1.91 1.91 0 0 0 .837-.181 1.72 1.72 0 0 0 .62-.491l.805.736a2.61 2.61 0 0 1-.959.704c-.383.168-.818.252-1.304.252-.469 0-.901-.078-1.297-.232a3.08 3.08 0 0 1-1.029-.653 3.02 3.02 0 0 1-.684-1.014c-.167-.396-.249-.84-.249-1.331 0-.482.081-.921.243-1.318a3 3 0 0 1 .678-1.021c.29-.285.632-.504 1.029-.659a3.5 3.5 0 0 1 1.285-.232 3.34 3.34 0 0 1 1.272.259c.422.172.756.422 1.003.749l-.869.711zm3.004-.621c.145-.301.392-.56.741-.775s.741-.323 1.176-.323c.392 0 .729.067 1.01.2s.515.312.703.536.326.487.415.788.134.625.134.969v3.799h-1.202V6.374a4.26 4.26 0 0 0-.057-.712c-.038-.224-.109-.423-.211-.596a1.17 1.17 0 0 0-.415-.415c-.175-.103-.403-.155-.684-.155a1.46 1.46 0 0 0-1.176.551c-.307.367-.46.857-.46 1.47v3.251h-1.202V0h1.202v4.573h.025z" />
    </g>
</svg>
