<svg xmlns="http://www.w3.org/2000/svg" viewBox="0 0 66 10">
    <linearGradient id="A" gradientUnits="userSpaceOnUse" x1=".118" y1="5.184" x2="8.913"
            y2="5.184">
        <stop offset=".059" stop-color="#fbd446" />
        <stop offset="1" stop-color="#e2b512" />
    </linearGradient>
    <path d="M.13 2.615l.002-1.481S.173.455.844.805l1.363.701s.193.113 0 .216l-1.904.996S.13 2.79.13 2.615zm-.007 5.14l.002 1.481s.042.679.713.328L2.2 8.861s.193-.114 0-.216L.295 7.651s-.173-.072-.173.103zm2.58-3.917l1.679-.872c.334-.174.006-.333.006-.333l-1.68-.878s-.299-.163-.286.18l-.002 1.701s-.047.363.283.202zM.406 5.056l1.679-.872c.334-.174.006-.333.006-.333l-1.68-.878s-.299-.163-.286.18l-.002 1.7s-.047.364.283.202zm4.589-.047l1.679-.872c.334-.174.006-.333.006-.333l-1.679-.878s-.299-.163-.286.18l-.002 1.701s-.048.363.283.202zM2.705 6.237l1.679-.872c.334-.174.006-.333.006-.333l-1.68-.878s-.299-.163-.286.18l-.002 1.7s-.048.363.283.202zM.404 7.402l1.678-.872c.334-.174.006-.333.006-.333l-1.68-.878s-.3-.163-.286.18L.121 7.2s-.048.363.284.202zm2.298 1.211l1.678-.872c.334-.173.006-.332.006-.332l-1.68-.878s-.299-.163-.286.18l-.002 1.701s-.048.363.284.202zm2.293-1.166l1.679-.872c.334-.174.005-.333.005-.333L5 5.364s-.299-.163-.286.18l-.002 1.701s-.047.363.283.202zM7.009 4.29L7.008 6.1s-.025.267.216.143l1.4-.723c.649-.335.002-.66.002-.66l-1.405-.729c-.235-.122-.212.158-.212.158z"
            fill="url(#A)" />
    <linearGradient id="B" gradientUnits="userSpaceOnUse" x1="11.591" y1="5.199" x2="77.648"
            y2="8.913">
        <stop offset="0" stop-color="#e2b512" />
        <stop offset=".5" stop-color="#fbd446" />
        <stop offset="1" stop-color="#e2b512" />
    </linearGradient>
    <path d="M10.981 7.662c.066.319.212.584.436.794s.502.315.835.315c.266 0 .484-.05.654-.151a1.12 1.12 0 0 0 .405-.409 1.85 1.85 0 0 0 .212-.605c.042-.231.062-.476.062-.737V.736h1.234v6.183c0 .311-.033.638-.1.982a2.8 2.8 0 0 1-.374.957 2.19 2.19 0 0 1-.766.731c-.328.193-.75.29-1.265.29-.673 0-1.221-.176-1.645-.529s-.702-.806-.835-1.36l1.146-.328z"
            fill="url(#B)" />
    <linearGradient id="C" gradientUnits="userSpaceOnUse" x1="11.524" y1="6.29" x2="77.628"
            y2="10.007">
        <stop offset="0" stop-color="#e2b512" />
        <stop offset=".5" stop-color="#fbd446" />
        <stop offset="1" stop-color="#e2b512" />
    </linearGradient>
    <path d="M20.217 9.653l-.037-.51-.012-.472h-.025c-.149.32-.401.59-.754.812s-.746.334-1.177.334c-.382 0-.712-.063-.991-.189s-.507-.3-.685-.523-.311-.481-.399-.774-.131-.609-.131-.945V3.683h1.171v3.3c0 .243.019.477.056.699s.106.417.206.585.237.303.411.403.398.151.673.151c.473 0 .856-.179 1.146-.535s.436-.833.436-1.43V3.683h1.171v4.685l.012.617.037.668h-1.109z"
            fill="url(#C)" />
    <linearGradient id="D" gradientUnits="userSpaceOnUse" x1="11.551" y1="5.942" x2="77.605"
            y2="9.656">
        <stop offset="0" stop-color="#e2b512" />
        <stop offset=".5" stop-color="#fbd446" />
        <stop offset="1" stop-color="#e2b512" />
    </linearGradient>
    <path d="M25.88 5.194a1.54 1.54 0 0 0-.561-.535c-.241-.139-.511-.208-.81-.208a1.86 1.86 0 0 0-.399.044 1.18 1.18 0 0 0-.355.139c-.104.063-.187.143-.249.239a.65.65 0 0 0-.093.359c0 .252.112.439.336.56s.561.233 1.01.334c.282.067.544.147.785.239s.45.208.629.346.318.304.417.497.149.42.149.68c0 .352-.067.651-.199.894a1.74 1.74 0 0 1-.53.599c-.22.156-.471.267-.754.334a3.77 3.77 0 0 1-.872.101c-.449 0-.887-.089-1.315-.265a2.57 2.57 0 0 1-1.065-.806l.835-.718c.158.235.376.433.654.592a1.81 1.81 0 0 0 .916.239c.149 0 .293-.015.43-.044s.262-.077.374-.145a.77.77 0 0 0 .268-.265c.066-.109.099-.247.099-.415 0-.277-.131-.483-.392-.617s-.646-.26-1.152-.378l-.604-.183a2.01 2.01 0 0 1-.555-.296 1.48 1.48 0 0 1-.405-.472c-.104-.189-.155-.422-.155-.699 0-.319.064-.594.193-.825s.297-.42.505-.567.444-.256.71-.328.54-.107.822-.107c.424 0 .833.084 1.228.252s.7.411.916.73l-.81.693z"
            fill="url(#D)" />
    <linearGradient id="E" gradientUnits="userSpaceOnUse" x1="11.595" y1="4.848" x2="77.712"
            y2="8.565">
        <stop offset="0" stop-color="#e2b512" />
        <stop offset=".5" stop-color="#fbd446" />
        <stop offset="1" stop-color="#e2b512" />
    </linearGradient>
    <path d="M30.953 4.653h-1.57v3.101c0 .36.066.618.199.772s.345.233.635.233a1.9 1.9 0 0 0 .349-.035 1.43 1.43 0 0 0 .336-.104l.037.97c-.141.05-.297.09-.467.12a3.13 3.13 0 0 1-.53.044c-.557 0-.982-.155-1.277-.466s-.442-.776-.442-1.398V4.653h-1.134v-.97h1.134V1.97h1.159v1.713h1.57v.97z"
            fill="url(#E)" />
    <linearGradient id="F" gradientUnits="userSpaceOnUse" x1="11.671" y1="3.697" x2="77.731"
            y2="7.412">
        <stop offset="0" stop-color="#e2b512" />
        <stop offset=".5" stop-color="#fbd446" />
        <stop offset="1" stop-color="#e2b512" />
    </linearGradient>
    <path d="M34.243 7.838h.025L36.336.736h1.358l2.056 7.102h.025L41.719.736h1.308l-2.592 8.917h-1.283l-2.143-7.166h-.025l-2.143 7.166h-1.283L30.966.736h1.333l1.944 7.102z"
            fill="url(#F)" />
    <linearGradient id="G" gradientUnits="userSpaceOnUse" x1="11.607" y1="4.779" x2="77.682"
            y2="8.494">
        <stop offset="0" stop-color="#e2b512" />
        <stop offset=".5" stop-color="#fbd446" />
        <stop offset="1" stop-color="#e2b512" />
    </linearGradient>
    <path d="M46.72 5.786c0-.445-.133-.774-.399-.989s-.619-.321-1.059-.321c-.333 0-.646.065-.941.195s-.542.296-.741.498l-.623-.756c.29-.277.645-.495 1.065-.655s.87-.239 1.352-.239c.424 0 .791.061 1.103.183s.567.288.766.497a2.04 2.04 0 0 1 .448.743c.1.286.15.592.15.919v2.607l.019.636c.012.222.035.405.068.548H46.87a3.74 3.74 0 0 1-.099-.856h-.038a2.28 2.28 0 0 1-.816.743c-.328.176-.716.264-1.165.264-.233 0-.476-.032-.729-.094s-.484-.166-.692-.309a1.74 1.74 0 0 1-.517-.567c-.137-.235-.205-.524-.205-.869 0-.454.12-.812.361-1.077s.556-.466.947-.605a5.29 5.29 0 0 1 1.32-.271l1.483-.063v-.164zm-.287 1.02l-.903.038a4.12 4.12 0 0 0-.847.151c-.253.076-.463.189-.629.34s-.249.352-.249.604c0 .176.035.323.106.441a.88.88 0 0 0 .28.29c.116.075.245.128.386.158s.287.044.436.044c.548 0 .97-.165 1.265-.498s.442-.749.442-1.253v-.315h-.287z"
            fill="url(#G)" />
    <linearGradient id="H" gradientUnits="userSpaceOnUse" x1="11.644" y1="3.653" x2="77.76"
            y2="7.37">
        <stop offset="0" stop-color="#e2b512" />
        <stop offset=".5" stop-color="#fbd446" />
        <stop offset="1" stop-color="#e2b512" />
    </linearGradient>
    <path d="M52.252 4.653h-1.57v3.101c0 .36.066.618.199.772s.345.233.635.233c.108 0 .224-.012.349-.035a1.42 1.42 0 0 0 .336-.104l.037.97c-.141.05-.297.09-.467.12a3.13 3.13 0 0 1-.53.044c-.557 0-.982-.155-1.277-.466s-.442-.776-.442-1.398V4.653H48.39v-.97h1.134V1.97h1.159v1.713h1.57v.97z"
            fill="url(#H)" />
    <linearGradient id="I" gradientUnits="userSpaceOnUse" x1="11.638" y1="4.178" x2="77.713"
            y2="7.893">
        <stop offset="0" stop-color="#e2b512" />
        <stop offset=".5" stop-color="#fbd446" />
        <stop offset="1" stop-color="#e2b512" />
    </linearGradient>
    <path d="M57.286 5.194c-.124-.193-.311-.355-.56-.485a1.7 1.7 0 0 0-.798-.195c-.308 0-.579.059-.816.176a1.87 1.87 0 0 0-.604.472 2.09 2.09 0 0 0-.38.686c-.087.26-.13.533-.13.818s.043.558.13.819.214.489.38.687.37.354.61.472a1.85 1.85 0 0 0 .822.176 1.86 1.86 0 0 0 .816-.176c.245-.118.447-.277.604-.479l.785.718c-.249.294-.561.523-.934.686s-.797.246-1.271.246c-.457 0-.878-.076-1.265-.227s-.721-.363-1.003-.636-.504-.602-.667-.989-.243-.818-.243-1.297A3.37 3.37 0 0 1 53 5.383c.158-.386.378-.718.661-.995a2.95 2.95 0 0 1 1.003-.642 3.41 3.41 0 0 1 1.252-.227c.415 0 .829.084 1.24.252s.737.411.978.73l-.847.693z"
            fill="url(#I)" />
    <linearGradient id="J" gradientUnits="userSpaceOnUse" x1="11.711" y1="2.199" x2="77.833"
            y2="5.917">
        <stop offset="0" stop-color="#e2b512" />
        <stop offset=".5" stop-color="#fbd446" />
        <stop offset="1" stop-color="#e2b512" />
    </linearGradient>
    <path d="M60.214 4.59c.141-.294.382-.546.723-.756a2.14 2.14 0 0 1 1.146-.315c.382 0 .711.065.985.195s.502.304.685.523.318.475.405.768.131.609.131.945v3.703h-1.171V6.345a4.12 4.12 0 0 0-.056-.694c-.037-.219-.106-.412-.206-.581a1.14 1.14 0 0 0-.405-.404c-.17-.101-.392-.151-.666-.151-.466 0-.847.179-1.146.537s-.448.835-.448 1.433v3.169h-1.171V.131h1.171V4.59h.025z"
            fill="url(#J)" />
</svg>
